<?xml version="1.0" encoding="iso-8859-1"?>
<!-- Generator: Adobe Illustrator 19.0.0, SVG Export Plug-In . SVG Version: 6.00 Build 0)  -->
<svg version="1.1" id="Capa_1" xmlns="http://www.w3.org/2000/svg" xmlns:xlink="http://www.w3.org/1999/xlink" x="0px" y="0px"
	 viewBox="0 0 485.555 485.555" style="enable-background:new 0 0 485.555 485.555;" xml:space="preserve">
<g>
	<g>
		<rect x="341.555" y="3.848" width="16" height="24"/>
	</g>
</g>
<g>
	<g>
		<rect x="341.555" y="251.848" width="16" height="24"/>
	</g>
</g>
<g>
	<g>
		<rect x="425.235" y="44.17" transform="matrix(0.7071 -0.7071 0.7071 0.7071 91.1734 324.4521)" width="24" height="16"/>
	</g>
</g>
<g>
	<g>
		<rect x="249.875" y="219.528" transform="matrix(0.7071 -0.7071 0.7071 0.7071 -84.1849 251.8149)" width="24" height="16"/>
	</g>
</g>
<g>
	<g>
		<rect x="429.234" y="215.489" transform="matrix(0.7071 -0.7071 0.7071 0.7071 -32.7956 375.8022)" width="16" height="24"/>
	</g>
</g>
<g>
	<g>
		<rect x="253.876" y="40.169" transform="matrix(0.7071 -0.7071 0.7071 0.7071 39.8133 200.455)" width="16" height="24"/>
	</g>
</g>
<g>
	<g>
		<rect x="461.555" y="131.848" width="24" height="16"/>
	</g>
</g>
<g>
	<g>
		<rect x="213.555" y="131.848" width="24" height="16"/>
	</g>
</g>
<g>
	<g>
		<path d="M396.094,127.239c-1.499-2.126-3.938-3.391-6.539-3.391h-24.578l-7.75-26.266c-1.25-4.237-5.699-6.658-9.936-5.408
			c-2.603,0.768-4.64,2.804-5.408,5.408l-7.75,26.266h-24.578c-4.418,0-8,3.581-8.001,7.999c0,2.602,1.265,5.041,3.391,6.54
			l19.969,14.094l-7.719,25.008c-1.305,4.221,1.058,8.7,5.279,10.005c2.473,0.765,5.164,0.285,7.221-1.287l19.859-15.172
			l19.859,15.172c3.51,2.683,8.53,2.012,11.213-1.498c1.572-2.057,2.052-4.747,1.287-7.221l-7.719-25.008l19.969-14.094
			C397.775,135.841,398.639,130.85,396.094,127.239z M360.227,142.754c-2.832,1.996-4.056,5.589-3.031,8.898l2.047,6.648
			l-4.828-3.695c-2.87-2.188-6.848-2.188-9.719,0l-4.828,3.695l2.047-6.648c1.025-3.31-0.199-6.902-3.031-8.898l-4.117-2.906h5.344
			c3.546,0.001,6.669-2.333,7.672-5.734l1.773-6.008l1.773,6.008c1.003,3.401,4.126,5.735,7.672,5.734h5.344L360.227,142.754z"/>
	</g>
</g>
<g>
	<g>
		<path d="M229.564,251.848c-0.003,0-0.006,0-0.009,0h-48v16h28.178L0,470.09l11.109,11.516l210.445-202.929v29.171h16v-48
			C237.557,255.432,233.98,251.85,229.564,251.848z"/>
	</g>
</g>
<g>
	<g>
		<path d="M157.564,179.848c-0.003,0-0.006,0-0.009,0h-48v16h26.964L8.242,309.871l10.625,11.953l130.688-116.167v30.19h16v-48
			C165.557,183.432,161.98,179.85,157.564,179.848z"/>
	</g>
</g>
<g>
	<g>
		<path d="M125.564,91.848c-0.003,0-0.006,0-0.009,0h-48v16h27.629L8.109,197.988L19,209.707l98.555-91.515v29.656h16v-48
			C133.557,95.432,129.98,91.85,125.564,91.848z"/>
	</g>
</g>
<g>
	<g>
		<path d="M389.564,363.848c-0.003,0-0.006,0-0.009,0h-48v16h27.629l-97.075,90.141L283,481.707l98.555-91.515v29.656h16v-48
			C397.557,367.432,393.98,363.85,389.564,363.848z"/>
	</g>
</g>
<g>
	<g>
		<path d="M301.564,323.848c-0.003,0-0.006,0-0.009,0h-48v16h28.688L151.899,470.192l11.312,11.312L293.555,351.16v28.688h16v-48
			C309.557,327.432,305.98,323.85,301.564,323.848z"/>
	</g>
</g>
<g>
	<g>
		<path d="M349.555,43.848c-52.995,0.058-95.942,43.005-96,96c0,53.019,42.981,96,96,96s96-42.981,96-96
			S402.574,43.848,349.555,43.848z M349.555,219.848c-44.183,0-80-35.817-80-80s35.817-80,80-80c44.161,0.052,79.948,35.839,80,80
			C429.555,184.03,393.738,219.848,349.555,219.848z"/>
	</g>
</g>
<g>
</g>
<g>
</g>
<g>
</g>
<g>
</g>
<g>
</g>
<g>
</g>
<g>
</g>
<g>
</g>
<g>
</g>
<g>
</g>
<g>
</g>
<g>
</g>
<g>
</g>
<g>
</g>
<g>
</g>
</svg>
