<?xml version="1.0" encoding="iso-8859-1"?>
<!-- Generator: Adobe Illustrator 19.0.0, SVG Export Plug-In . SVG Version: 6.00 Build 0)  -->
<svg version="1.1" id="Capa_1" xmlns="http://www.w3.org/2000/svg" xmlns:xlink="http://www.w3.org/1999/xlink" x="0px" y="0px"
	 viewBox="0 0 480 480" style="enable-background:new 0 0 480 480;" xml:space="preserve">
<g>
	<g>
		<path d="M472,0H0v16h48v24h16V16h48v24h16V16h48v24h16V16h48v24h16V16h48v24h16V16h56v24h16V16h72v72h-24v16h24v48h-24v16h24v48
			h-24v16h24v48h-24v16h24v48h-24v16h24v56h-24v16h24v48h16V8C480,3.582,476.418,0,472,0z"/>
	</g>
</g>
<g>
	<g>
		<path d="M402.966,96.571c-1.906-0.761-4.032-0.761-5.938,0l-80,32c-4.102,1.644-6.096,6.302-4.452,10.404
			c0.402,1.004,1.004,1.916,1.769,2.681L332.688,160l-92.297,92.297L190.02,194.73c-2.909-3.324-7.961-3.661-11.285-0.752
			c-0.085,0.074-0.168,0.151-0.25,0.229l-168,160l11.031,11.586l161.957-154.246l50.508,57.723c1.458,1.666,3.541,2.653,5.754,2.727
			c2.216,0.095,4.369-0.756,5.922-2.34L344,171.313l18.344,18.344c3.126,3.125,8.192,3.124,11.317-0.002
			c0.765-0.765,1.367-1.677,1.769-2.682l32-80C409.07,102.868,407.071,98.21,402.966,96.571z M365.078,169.766l-30.844-30.844
			l51.406-20.562L365.078,169.766z"/>
	</g>
</g>
<g>
	<g>
		<path d="M160,320h-8v-24h-16v24h-8c-4.418,0-8,3.582-8,8v72c0,4.418,3.582,8,8,8h8v24h16v-24h8c4.418,0,8-3.582,8-8v-72
			C168,323.582,164.418,320,160,320z M152,392h-16v-56h16V392z"/>
	</g>
</g>
<g>
	<g>
		<path d="M256,344h-8v-24h-16v24h-8c-4.418,0-8,3.582-8,8v56c0,4.418,3.582,8,8,8h8v32h16v-32h8c4.418,0,8-3.582,8-8v-56
			C264,347.582,260.418,344,256,344z M248,400h-16v-40h16V400z"/>
	</g>
</g>
<g>
	<g>
		<path d="M344,280h-8v-16h-16v16h-8c-4.418,0-8,3.582-8,8v48c0,4.418,3.582,8,8,8h8v32h16v-32h8c4.418,0,8-3.582,8-8v-48
			C352,283.582,348.418,280,344,280z M336,328h-16v-32h16V328z"/>
	</g>
</g>
<g>
</g>
<g>
</g>
<g>
</g>
<g>
</g>
<g>
</g>
<g>
</g>
<g>
</g>
<g>
</g>
<g>
</g>
<g>
</g>
<g>
</g>
<g>
</g>
<g>
</g>
<g>
</g>
<g>
</g>
</svg>
