<?xml version="1.0" encoding="iso-8859-1"?>
<!-- Generator: Adobe Illustrator 19.0.0, SVG Export Plug-In . SVG Version: 6.00 Build 0)  -->
<svg version="1.1" id="Capa_1" xmlns="http://www.w3.org/2000/svg" xmlns:xlink="http://www.w3.org/1999/xlink" x="0px" y="0px"
	 viewBox="0 0 480 480" style="enable-background:new 0 0 480 480;" xml:space="preserve">
<g>
	<g>
		<rect x="111.664" y="288" width="48" height="16"/>
	</g>
</g>
<g>
	<g>
		<path d="M238.32,355.563l-30.656-45.984v-33.051l13.914-20.219c0.922-1.333,1.415-2.915,1.414-4.535v-23.543
			c0.001-3.168-1.868-6.039-4.766-7.32l-15.422-6.805c-0.727-2.73-1.531-5.32-2.422-7.801l8.547-14.754
			c1.414-2.443,1.438-5.449,0.063-7.914c-4.12-7.343-9.035-14.211-14.656-20.48c-1.945-2.166-4.911-3.108-7.75-2.461l-16.219,3.715
			c-2.008-1.613-4.102-3.164-6.281-4.633l-1.562-17.148c-0.262-2.844-2.018-5.334-4.609-6.535
			c-7.543-3.524-15.46-6.183-23.602-7.926c-2.851-0.591-5.798,0.408-7.703,2.609l-11.305,13.125h-7.274l-11.312-13.125
			c-1.906-2.2-4.852-3.198-7.703-2.61c-8.142,1.742-16.06,4.403-23.602,7.93c-2.586,1.202-4.338,3.688-4.602,6.527l-1.57,17.152
			c-2.18,1.473-4.271,3.016-6.273,4.629l-16.227-3.715c-2.84-0.657-5.812,0.288-7.75,2.465
			c-5.624,6.267-10.539,13.135-14.656,20.481c-1.375,2.465-1.351,5.471,0.063,7.914l8.546,14.75c-0.891,2.48-1.695,5.07-2.422,7.805
			l-15.414,6.801c-2.901,1.278-4.774,4.149-4.773,7.32v23.543c-0.001,0.849,0.134,1.693,0.398,2.5l6.93,21.051V472
			c-0.001,4.417,3.579,7.999,7.996,8c0.001,0,0.003,0,0.004,0h88c4.417,0.001,7.999-3.579,8-7.996c0-0.001,0-0.003,0-0.004v-32h88
			c4.417,0.001,7.999-3.579,8-7.996c0-0.001,0-0.003,0-0.004v-64h24c4.418,0,8-3.581,8-7.999
			C239.664,358.422,239.197,356.877,238.32,355.563z M199.664,352c-4.417-0.001-7.999,3.579-8,7.996c0,0.001,0,0.003,0,0.004v64h-88
			c-4.417-0.001-7.999,3.579-8,7.996c0,0.001,0,0.003,0,0.004v32h-72V274.039c0.001-0.849-0.134-1.693-0.398-2.5l-6.93-21.051
			v-17.047l14.234-6.281c2.312-1.018,4.006-3.069,4.57-5.531c0.981-4.427,2.332-8.764,4.039-12.965
			c0.954-2.301,0.781-4.915-0.469-7.07l-8.125-14.02c2.216-3.554,4.656-6.963,7.305-10.207l15.383,3.523
			c2.511,0.575,5.145-0.094,7.078-1.797c3.345-2.934,6.931-5.583,10.719-7.918c2.131-1.325,3.519-3.572,3.75-6.07l1.492-16.316
			c3.733-1.538,7.562-2.835,11.461-3.883l10.531,12.219c1.521,1.764,3.734,2.778,6.063,2.777h14.602
			c2.328-0.001,4.541-1.015,6.062-2.777l10.523-12.215c3.9,1.047,7.728,2.344,11.461,3.883l1.492,16.309
			c0.232,2.502,1.623,4.75,3.758,6.074c3.785,2.332,7.366,4.981,10.703,7.918c1.931,1.713,4.572,2.384,7.086,1.801l15.391-3.523
			c2.645,3.244,5.082,6.652,7.297,10.203l-8.125,14.02c-1.249,2.154-1.423,4.767-0.469,7.066c1.704,4.203,3.056,8.541,4.039,12.969
			c0.564,2.46,2.255,4.51,4.563,5.531l14.242,6.285v15.84l-13.914,20.219c-0.922,1.333-1.415,2.915-1.414,4.535V312
			c0.001,1.579,0.468,3.123,1.344,4.438L216.719,352H199.664z"/>
	</g>
</g>
<g>
	<g>
		<path d="M111.664,176c-29.795-1.027-54.82,22.211-56,52v4c-0.001,4.417,3.579,7.999,7.996,8c0.001,0,0.003,0,0.004,0h96
			c4.417,0.001,7.999-3.579,8-7.996c0-0.001,0-0.003,0-0.004v-4C166.484,198.211,141.459,174.973,111.664,176z M71.906,224
			c3.377-19.113,20.364-32.786,39.758-32c19.393-0.786,36.381,12.887,39.758,32H71.906z"/>
	</g>
</g>
<g>
	<g>
		<path d="M446.177,66.729c-1.501-2.106-3.927-3.357-6.513-3.358h-27.828l-8.578-25.887c-1.389-4.194-5.915-6.468-10.109-5.079
			c-2.4,0.795-4.284,2.678-5.079,5.079l-8.578,25.887h-27.828c-4.419,0.002-7.999,3.585-7.998,8.003
			c0.001,2.586,1.251,5.012,3.357,6.512l22.383,15.961l-8.531,25.769c-1.39,4.193,0.883,8.72,5.076,10.109
			c2.421,0.802,5.08,0.402,7.158-1.078l22.555-16.078l22.555,16.078c3.598,2.563,8.593,1.725,11.156-1.873
			c1.48-2.078,1.881-4.737,1.078-7.158l-8.531-25.769l22.383-15.961C447.903,75.323,448.741,70.327,446.177,66.729z M407.828,84.246
			c-2.858,2.037-4.055,5.699-2.953,9.031l2.695,8.129l-7.266-5.176c-2.777-1.979-6.504-1.979-9.281,0l-7.266,5.176l2.695-8.129
			c1.102-3.332-0.095-6.994-2.953-9.031l-6.836-4.875h8.609c3.448-0.002,6.508-2.211,7.594-5.484l2.797-8.441l2.797,8.441
			c1.086,3.273,4.145,5.483,7.594,5.484h8.609L407.828,84.246z"/>
	</g>
</g>
<g>
	<g>
		<path d="M357.75,6.777c-10.659,4.449-20.334,10.96-28.469,19.16l11.344,11.281c6.655-6.711,14.573-12.039,23.297-15.676
			L357.75,6.777z"/>
	</g>
</g>
<g>
	<g>
		<path d="M453.672,25.559L442.391,36.91c6.72,6.65,12.059,14.562,15.711,23.281l14.75-6.188
			C468.395,43.352,461.877,33.685,453.672,25.559z"/>
	</g>
</g>
<g>
	<g>
		<path d="M310.266,54.504c-4.381,10.623-6.624,22.005-6.602,33.496v0.164l16-0.164c-0.02-9.4,1.815-18.712,5.398-27.402
			L310.266,54.504z"/>
	</g>
</g>
<g>
	<g>
		<path d="M325.172,115.676l-14.766,6.156c4.436,10.662,10.935,20.343,19.125,28.484l11.297-11.328
			C334.124,132.325,328.804,124.402,325.172,115.676z"/>
	</g>
</g>
<g>
	<g>
		<path d="M463.664,88c0.018,9.45-1.835,18.809-5.453,27.539l14.781,6.125c4.426-10.67,6.694-22.112,6.672-33.664v-0.328L463.664,88
			z"/>
	</g>
</g>
<g>
	<g>
		<path d="M442.609,138.887c-6.674,6.696-14.604,12.008-23.336,15.633l6.141,14.773c10.669-4.425,20.358-10.917,28.508-19.102
			L442.609,138.887z"/>
	</g>
</g>
<g>
	<g>
		<path d="M391.664,0h-0.242l0.242,16c9.376-0.019,18.664,1.805,27.336,5.367l6.078-14.797C414.478,2.213,403.125-0.02,391.664,0z"
			/>
	</g>
</g>
<g>
	<g>
		<path d="M391.664,160c-9.427,0.019-18.765-1.824-27.477-5.426l-6.109,14.789c10.649,4.401,22.063,6.657,33.586,6.637h0.078
			L391.664,160z"/>
	</g>
</g>
<g>
	<g>
		<rect x="225.908" y="156.013" transform="matrix(0.848 -0.53 0.53 0.848 -46.8524 164.6612)" width="75.472" height="16"/>
	</g>
</g>
<g>
</g>
<g>
</g>
<g>
</g>
<g>
</g>
<g>
</g>
<g>
</g>
<g>
</g>
<g>
</g>
<g>
</g>
<g>
</g>
<g>
</g>
<g>
</g>
<g>
</g>
<g>
</g>
<g>
</g>
</svg>
