<?xml version="1.0" encoding="iso-8859-1"?>
<!-- Generator: Adobe Illustrator 19.0.0, SVG Export Plug-In . SVG Version: 6.00 Build 0)  -->
<svg version="1.1" id="Capa_1" xmlns="http://www.w3.org/2000/svg" xmlns:xlink="http://www.w3.org/1999/xlink" x="0px" y="0px"
	 viewBox="0 0 479.991 479.991" style="enable-background:new 0 0 479.991 479.991;" xml:space="preserve">
<g>
	<g>
		<path d="M207.996,31.991c-88.366,0-160,71.634-160,160s71.634,160,160,160s160-71.634,160-160
			C367.896,103.667,296.32,32.091,207.996,31.991z M207.996,335.991c-79.529,0-144-64.471-144-144s64.471-144,144-144
			s144,64.471,144,144C351.905,271.483,287.487,335.9,207.996,335.991z"/>
	</g>
</g>
<g>
	<g>
		<path d="M470.652,291.554l-62.672-94.062C406.594,87.043,315.935-1.37,205.487,0.016C96.042,1.389,8.03,90.483,7.996,199.937
			v272.055c-0.001,4.417,3.579,7.999,7.996,8c0.001,0,0.003,0,0.004,0h224c4.417,0.001,7.999-3.579,8-7.996c0-0.001,0-0.003,0-0.004
			v-48h144c4.417,0.001,7.999-3.579,8-7.996c0-0.001,0-0.003,0-0.004v-112h64c2.951-0.001,5.662-1.625,7.055-4.227
			C472.441,297.164,472.288,294.008,470.652,291.554z M391.996,287.991c-4.417-0.001-7.999,3.579-8,7.996c0,0.001,0,0.003,0,0.004
			v112h-144c-4.417-0.001-7.999,3.579-8,7.996c0,0.001,0,0.003,0,0.004v48h-208V199.937c0-101.62,82.38-184,184-184
			s184,82.38,184,184c0.001,1.579,0.468,3.123,1.344,4.438l55.711,83.617H391.996z"/>
	</g>
</g>
<g>
	<g>
		<path d="M262.101,74.82c-1.52-1.795-3.753-2.83-6.105-2.828h-48v16h24.688l-48.024,37.352l-27.008-27.008
			c-2.877-2.891-7.472-3.147-10.652-0.594l-40,32l9.992,12.5l34.41-27.531l26.938,26.937c2.852,2.854,7.384,3.136,10.566,0.656
			l55.831-43.424l-4.631,27.799l15.781,2.625l8-48C264.273,78.985,263.62,76.613,262.101,74.82z"/>
	</g>
</g>
<g>
	<g>
		<rect x="319.996" y="151.991" width="16" height="72"/>
	</g>
</g>
<g>
	<g>
		<rect x="287.996" y="175.991" width="16" height="48"/>
	</g>
</g>
<g>
	<g>
		<rect x="255.996" y="191.991" width="16" height="32"/>
	</g>
</g>
<g>
	<g>
		<path d="M234.156,216.679l-11.816-4.203c-0.621-1.742-1.323-3.445-2.105-5.109l5.371-11.32c1.3-2.737,0.942-5.974-0.926-8.359
			c-3.61-4.613-7.767-8.771-12.379-12.383c-2.389-1.86-5.622-2.216-8.359-0.922l-11.32,5.375c-1.645-0.773-3.336-1.469-5.059-2.086
			l-4.231-12.282c-1.108-3.231-4.147-5.4-7.563-5.398h-15.547c-3.415-0.002-6.454,2.168-7.563,5.398l-4.23,12.282
			c-1.723,0.617-3.409,1.313-5.059,2.086l-11.32-5.375c-2.739-1.292-5.971-0.932-8.359,0.93c-4.614,3.607-8.771,7.762-12.379,12.375
			c-1.868,2.386-2.226,5.623-0.926,8.359l5.371,11.32c-0.773,1.641-1.469,3.336-2.086,5.055l-12.281,4.234
			c-3.228,1.111-5.395,4.149-5.395,7.563v15.547c0,3.415,2.169,6.453,5.398,7.562l12.273,4.227c0.621,1.727,1.318,3.414,2.09,5.063
			l-5.371,11.32c-1.3,2.737-0.942,5.974,0.926,8.359c3.61,4.613,7.767,8.771,12.379,12.383c2.391,1.857,5.622,2.213,8.359,0.922
			l11.32-5.375c1.644,0.773,3.336,1.469,5.059,2.086l4.231,12.281c1.108,3.231,4.147,5.4,7.563,5.398h15.547
			c3.415,0.002,6.454-2.168,7.563-5.398l4.23-12.282c1.723-0.617,3.409-1.313,5.059-2.086l11.32,5.375
			c2.737,1.3,5.975,0.94,8.359-0.93c4.616-3.608,8.774-7.767,12.383-12.383c1.865-2.384,2.222-5.618,0.922-8.352l-5.371-11.32
			c0.781-1.664,1.483-3.367,2.105-5.109l11.816-4.203c3.19-1.134,5.321-4.154,5.32-7.539v-15.547
			C239.476,220.833,237.345,217.813,234.156,216.679z M223.476,234.116l-10.238,3.641c-2.458,0.874-4.336,2.892-5.031,5.406
			c-0.899,3.271-2.195,6.419-3.859,9.375c-1.284,2.266-1.384,5.015-0.266,7.367l4.848,10.219c-0.899,0.961-1.833,1.896-2.805,2.805
			l-10.215-4.852c-2.352-1.11-5.095-1.014-7.363,0.258c-2.959,1.666-6.11,2.964-9.383,3.867c-2.539,0.705-4.568,2.616-5.422,5.109
			l-3.68,10.68h-4.133l-3.68-10.68c-0.854-2.493-2.883-4.404-5.422-5.109c-3.274-0.901-6.425-2.2-9.383-3.867
			c-2.268-1.272-5.012-1.368-7.363-0.258l-10.215,4.852c-0.969-0.906-1.904-1.844-2.805-2.813l4.848-10.211
			c1.118-2.352,1.019-5.102-0.266-7.367c-1.664-2.956-2.96-6.104-3.859-9.375c-0.705-2.541-2.616-4.572-5.109-5.43l-10.68-3.68
			v-4.133l10.684-3.68c2.492-0.859,4.401-2.89,5.105-5.43c0.899-3.268,2.195-6.414,3.859-9.367c1.284-2.266,1.384-5.015,0.266-7.367
			l-4.848-10.211c0.902-0.969,1.837-1.906,2.805-2.813l10.215,4.852c2.35,1.118,5.097,1.022,7.363-0.258
			c2.959-1.666,6.11-2.964,9.383-3.867c2.539-0.705,4.568-2.616,5.422-5.109l3.68-10.68h4.133l3.68,10.68
			c0.854,2.493,2.883,4.404,5.422,5.109c3.274,0.901,6.425,2.2,9.383,3.867c2.266,1.28,5.013,1.376,7.363,0.258l10.215-4.852
			c0.969,0.906,1.904,1.844,2.805,2.813l-4.848,10.211c-1.118,2.352-1.019,5.102,0.266,7.367c1.664,2.956,2.96,6.104,3.859,9.375
			c0.696,2.514,2.573,4.532,5.031,5.406l10.238,3.641L223.476,234.116z"/>
	</g>
</g>
<g>
	<g>
		<path d="M167.996,207.991c-13.255,0-24,10.745-24,24s10.745,24,24,24s24-10.745,24-24
			C191.981,218.743,181.244,208.006,167.996,207.991z M167.996,239.991c-4.418,0-8-3.582-8-8s3.582-8,8-8s8,3.582,8,8
			C175.991,236.408,172.412,239.987,167.996,239.991z"/>
	</g>
</g>
<g>
</g>
<g>
</g>
<g>
</g>
<g>
</g>
<g>
</g>
<g>
</g>
<g>
</g>
<g>
</g>
<g>
</g>
<g>
</g>
<g>
</g>
<g>
</g>
<g>
</g>
<g>
</g>
<g>
</g>
</svg>
