<svg height="480pt" viewBox="0 0 480 480.00108" width="480pt" xmlns="http://www.w3.org/2000/svg"><path d="m8 152 232-144 232 144zm232-104c-17.671875 0-32 14.328125-32 32 0 17.675781 14.328125 32 32 32s32-14.324219 32-32c0-17.671875-14.328125-32-32-32zm0 0" fill="#78b9eb"/><g fill="#1a6fb0"><path d="m480 151.832031c-.015625-.96875-.210938-1.929687-.574219-2.832031-.089843-.214844-.242187-.390625-.34375-.597656-.445312-.972656-1.125-1.816406-1.976562-2.457032-.269531-.265624-.558594-.511718-.855469-.746093l-68.25-42.335938v-30.863281h56c4.417969 0 8-3.582031 8-8v-48c0-4.417969-3.582031-8-8-8h-56v-8h-16v92.929688l-147.785156-91.730469c-2.582032-1.597657-5.847656-1.597657-8.429688 0l-232 144c-.300781.234375-.585937.480469-.855468.746093-.28125.210938-.550782.441407-.800782.6875-.476562.53125-.882812 1.128907-1.199218 1.769532-.105469.207031-.257813.382812-.34375.597656-.367188.902344-.5664068 1.859375-.585938 2.832031v.167969 320c0 4.417969 3.582031 8 8 8h464c4.417969 0 8-3.582031 8-8v-320c0-.0625 0-.109375 0-.167969zm-72-127.832031h48v32h-48zm56 440h-24v-184c0-4.417969-3.582031-8-8-8h-80c-4.417969 0-8 3.582031-8 8v184h-56v-184c0-4.417969-3.582031-8-8-8h-80c-4.417969 0-8 3.582031-8 8v184h-56v-184c0-4.417969-3.582031-8-8-8h-80c-4.417969 0-8 3.582031-8 8v184h-24v-304h448zm-427.945312-320 203.945312-126.582031 203.945312 126.582031zm83.945312 320h-64v-176h64zm152 0h-64v-176h64zm152 0h-64v-176h64zm0 0"/><path d="m200 80c0 22.09375 17.910156 40 40 40 22.09375 0 40-17.90625 40-40 0-22.089844-17.90625-40-40-40-22.078125.027344-39.972656 17.921875-40 40zm40 24c-13.253906 0-24-10.742188-24-24 0-13.253906 10.746094-24 24-24s24 10.746094 24 24c0 13.257812-10.746094 24-24 24zm0 0"/><path d="m200 256h80c4.417969 0 8-3.582031 8-8v-48c0-4.417969-3.582031-8-8-8h-80c-4.417969 0-8 3.582031-8 8v48c0 4.417969 3.582031 8 8 8zm8-48h64v32h-64zm0 0"/><path d="m352 256h80c4.417969 0 8-3.582031 8-8v-48c0-4.417969-3.582031-8-8-8h-80c-4.417969 0-8 3.582031-8 8v48c0 4.417969 3.582031 8 8 8zm8-48h64v32h-64zm0 0"/><path d="m48 256h80c4.417969 0 8-3.582031 8-8v-48c0-4.417969-3.582031-8-8-8h-80c-4.417969 0-8 3.582031-8 8v48c0 4.417969 3.582031 8 8 8zm8-48h64v32h-64zm0 0"/></g></svg>