<svg height="480pt" viewBox="0 0 480 480" width="480pt" xmlns="http://www.w3.org/2000/svg"><path d="m328 168-88-64-88 64v304h48v-96h80v96h48zm-88 120c-26.507812 0-48-21.492188-48-48s21.492188-48 48-48 48 21.492188 48 48-21.492188 48-48 48zm0 0" fill="#9bc9ff"/><path d="m328 472h144v-272h-144zm64-104" fill="#9bc9ff"/><path d="m8 200v272h144v-272zm80 40" fill="#9bc9ff"/><path d="m240 16h96v48h-96zm0 0" fill="#9bc9ff"/><g fill="#1e81ce"><path d="m472 192h-136v-24c0-2.558594-1.226562-4.964844-3.296875-6.472656l-84.703125-61.597656v-27.929688h88c4.417969 0 8-3.582031 8-8v-48c0-4.417969-3.582031-8-8-8h-88c0-4.417969-3.582031-8-8-8s-8 3.582031-8 8v91.929688l-84.703125 61.597656c-2.070313 1.507812-3.296875 3.914062-3.296875 6.472656v24h-136c-4.417969 0-8 3.582031-8 8v272c0 4.417969 3.582031 8 8 8h464c4.417969 0 8-3.582031 8-8v-272c0-4.417969-3.582031-8-8-8zm-144-168v32h-80v-32zm-312 184h128v256h-128zm144-35.929688 80-58.183593 80 58.183593v291.929688h-32v-88c0-4.417969-3.582031-8-8-8h-80c-4.417969 0-8 3.582031-8 8v88h-32zm48 291.929688v-80h64v80zm256 0h-128v-256h128zm0 0"/><path d="m40 232h32v16h-32zm0 0"/><path d="m88 232h32v16h-32zm0 0"/><path d="m40 264h32v16h-32zm0 0"/><path d="m88 264h32v16h-32zm0 0"/><path d="m40 296h32v16h-32zm0 0"/><path d="m88 296h32v16h-32zm0 0"/><path d="m40 328h32v16h-32zm0 0"/><path d="m88 328h32v16h-32zm0 0"/><path d="m40 360h32v16h-32zm0 0"/><path d="m88 360h32v16h-32zm0 0"/><path d="m360 232h32v16h-32zm0 0"/><path d="m408 232h32v16h-32zm0 0"/><path d="m360 264h32v16h-32zm0 0"/><path d="m408 264h32v16h-32zm0 0"/><path d="m360 296h32v16h-32zm0 0"/><path d="m408 296h32v16h-32zm0 0"/><path d="m360 328h32v16h-32zm0 0"/><path d="m408 328h32v16h-32zm0 0"/><path d="m360 360h32v16h-32zm0 0"/><path d="m408 360h32v16h-32zm0 0"/><path d="m240 296c30.929688 0 56-25.070312 56-56s-25.070312-56-56-56-56 25.070312-56 56c.035156 30.914062 25.085938 55.964844 56 56zm0-96c22.089844 0 40 17.910156 40 40s-17.910156 40-40 40-40-17.910156-40-40c.027344-22.082031 17.917969-39.972656 40-40zm0 0"/><path d="m248 208h-16v24h-16v16h32zm0 0"/></g></svg>