<svg height="480pt" viewBox="0 -28 480.00029 480" width="480pt" xmlns="http://www.w3.org/2000/svg"><path d="m8 8v320h257.199219c-1.597657-10.605469-1.597657-21.394531 0-32h-153.199219l72-112 35.519531 55.199219 84.480469-135.199219 65.039062 104c57.03125.570312 102.964844 46.964844 102.960938 104v-304zm112 120c-13.253906 0-24-10.746094-24-24s10.746094-24 24-24 24 10.746094 24 24-10.746094 24-24 24zm0 0" fill="#9bc9ff"/><path d="m472 328v-16c.007812 5.355469-.394531 10.703125-1.199219 16zm0 0" fill="#9bc9ff"/><path d="m184 184-72 112h72l35.519531-56.800781zm0 0" fill="#9bc9ff"/><path d="m284 250.800781v-.082031c6.324219-8.722656 13.996094-16.394531 22.71875-22.71875h.082031c12.5-9.179688 26.910157-15.414062 42.160157-18.238281 6.273437-1.195313 12.652343-1.785157 19.039062-1.761719h1.039062l-65.039062-104-84.480469 135.199219-35.519531 56.800781h81.199219c.160156-1.039062.402343-2 .5625-3.039062 2.824219-15.25 9.058593-29.660157 18.238281-42.160157zm0 0" fill="#9bc9ff"/><g fill="#1e81ce"><path d="m432 304h-56v-56c0-4.417969-3.582031-8-8-8s-8 3.582031-8 8v56h-56c-4.417969 0-8 3.582031-8 8s3.582031 8 8 8h56v56c0 4.417969 3.582031 8 8 8s8-3.582031 8-8v-56h56c4.417969 0 8-3.582031 8-8s-3.582031-8-8-8zm0 0"/><path d="m472 0h-464c-4.417969 0-8 3.582031-8 8v320c0 4.417969 3.582031 8 8 8h250.640625c.800781 3.496094 1.65625 6.96875 2.785156 10.449219 14.828125 46.3125 57.945313 77.6875 106.574219 77.550781 29.726562.066406 58.253906-11.710938 79.269531-32.730469 21.019531-21.015625 32.796875-49.542969 32.730469-79.269531v-304c0-4.417969-3.582031-8-8-8zm-345.34375 288 57.34375-89.207031 26.039062 40.457031-30.472656 48.75zm177.34375-168.902344 51.054688 81.597656c-2.574219.296876-5.101563.6875-7.558594 1.160157-16.175782 2.984375-31.484375 9.542969-44.800782 19.199219-.242187.140624-.476562.292968-.703124.457031-9.414063 6.820312-17.683594 15.09375-24.503907 24.503906-.160156.226563-.3125.460937-.449219.703125-2.308593 3.21875-4.445312 6.554688-6.398437 10-.640625 1.105469-1.144531 2.273438-1.746094 3.402344-1.238281 2.351562-2.46875 4.710937-3.542969 7.199218-.609374 1.398438-1.105468 2.855469-1.65625 4.289063-.871093 2.246094-1.742187 4.496094-2.472656 6.808594-.496094 1.597656-.886718 3.199219-1.320312 4.855469-.429688 1.65625-.941406 3.132812-1.300782 4.757812h-60.160156zm64 288.902344c-41.679688.117188-78.636719-26.769531-91.351562-66.464844-4.597657-14.308594-5.808594-29.488281-3.527344-44.34375l.207031-1.152344c.128906-.613281.238281-1.238281.296875-1.597656 2.574219-14.074218 8.320312-27.375 16.800781-38.898437.167969-.230469.320313-.46875.460938-.71875 5.589843-7.589844 12.292969-14.292969 19.882812-19.878907.25-.144531.492188-.304687.726563-.480468 11.546875-8.480469 24.871094-14.226563 38.96875-16.800782 5.777344-1.113281 11.648437-1.671874 17.535156-1.664062h.960938c27.855468.335938 54.195312 12.730469 72.214843 33.976562 18.015625 21.25 25.933594 49.265626 21.710938 76.800782-7.511719 46.632812-47.652344 80.992187-94.886719 81.222656zm92.695312-158.609375c-1.757812-2.589844-3.625-5.105469-5.597656-7.542969-.433594-.527344-.882812-1.039062-1.3125-1.597656-1.78125-2.136719-3.648437-4.195312-5.601562-6.179688-.359375-.367187-.695313-.75-1.0625-1.117187-2.21875-2.226563-4.546875-4.335937-6.9375-6.402344-.535156-.445312-1.078125-.878906-1.597656-1.320312-2.203126-1.796875-4.457032-3.519531-6.792969-5.148438-.34375-.242187-.679688-.507812-1.023438-.738281-2.617187-1.785156-5.320312-3.429688-8.082031-4.992188l-1.894531-1.03125c-2.601563-1.398437-5.242188-2.71875-7.953125-3.914062-.28125-.125-.558594-.269531-.839844-.390625-2.945312-1.269531-5.960938-2.398437-9.023438-3.398437l-2.152343-.679688c-2.960938-.914062-5.960938-1.738281-9.023438-2.402344l-.535156-.136718c-3.203125-.679688-6.449219-1.175782-9.738281-1.597657-.800782-.097656-1.597656-.183593-2.398438-.265625-1.839844-.1875-3.691406-.320312-5.554687-.40625l-62.789063-100.367187c-1.558594-2.214844-4.09375-3.535157-6.800781-3.535157s-5.242187 1.320313-6.800781 3.535157l-77.769532 124.488281-28.6875-44.578125c-1.5625-2.15625-4.0625-3.429687-6.726562-3.429687s-5.164062 1.273437-6.726562 3.429687l-69.632813 108.328125h-19.640625c-4.417969 0-8 3.582031-8 8s3.582031 8 8 8h168.296875c-.175781 2.640625-.296875 5.3125-.296875 8s.097656 5.359375.273438 8h-240.273438v-304h448v238.503906c-.742188-1.230468-1.550781-2.398437-2.335938-3.617187-.328124-.488281-.632812-1-.96875-1.496094zm0 0"/><path d="m120 72c-17.671875 0-32 14.328125-32 32s14.328125 32 32 32 32-14.328125 32-32-14.328125-32-32-32zm0 48c-8.835938 0-16-7.164062-16-16s7.164062-16 16-16 16 7.164062 16 16-7.164062 16-16 16zm0 0"/><path d="m120 64c4.417969 0 8-3.582031 8-8v-16c0-4.417969-3.582031-8-8-8s-8 3.582031-8 8v16c0 4.417969 3.582031 8 8 8zm0 0"/><path d="m89.070312 66.398438c2.226563 3.796874 7.09375 5.082031 10.902344 2.882812s5.128906-7.058594 2.957032-10.882812l-8-13.855469c-1.421876-2.496094-4.066407-4.039063-6.9375-4.042969-2.871094-.007812-5.527344 1.523438-6.957032 4.011719-1.429687 2.492187-1.414062 5.554687.035156 8.03125zm0 0"/><path d="m60.574219 78.929688 13.859375 8c2.476562 1.449218 5.539062 1.464843 8.027344.035156 2.492187-1.429688 4.023437-4.085938 4.015624-6.957032-.003906-2.871093-1.550781-5.515624-4.042968-6.9375l-13.859375-8c-3.820313-2.171874-8.679688-.851562-10.878907 2.957032-2.199218 3.808594-.914062 8.675781 2.878907 10.902344zm0 0"/><path d="m56 112h16c4.417969 0 8-3.582031 8-8s-3.582031-8-8-8h-16c-4.417969 0-8 3.582031-8 8s3.582031 8 8 8zm0 0"/><path d="m85.359375 124c-2.207031-3.824219-7.101563-5.136719-10.925781-2.929688l-13.859375 8c-2.492188 1.421876-4.039063 4.066407-4.042969 6.9375-.007812 2.871094 1.523438 5.527344 4.015625 6.957032 2.488281 1.429687 5.550781 1.414062 8.027344-.035156l13.859375-8c3.824218-2.210938 5.136718-7.101563 2.925781-10.929688zm0 0"/><path d="m100 138.640625c-3.828125-2.210937-8.71875-.898437-10.929688 2.925781l-8 13.859375c-1.449218 2.476563-1.464843 5.539063-.035156 8.027344 1.429688 2.492187 4.085938 4.023437 6.957032 4.015625 2.871093-.003906 5.515624-1.550781 6.9375-4.042969l8-13.859375c2.207031-3.824218.894531-8.71875-2.929688-10.925781zm0 0"/><path d="m120 144c-4.417969 0-8 3.582031-8 8v16c0 4.417969 3.582031 8 8 8s8-3.582031 8-8v-16c0-4.417969-3.582031-8-8-8zm0 0"/><path d="m150.929688 141.601562c-1.421876-2.496093-4.066407-4.042968-6.9375-4.046874-2.871094-.007813-5.527344 1.527343-6.957032 4.015624-1.429687 2.488282-1.414062 5.554688.035156 8.03125l8 13.855469c1.421876 2.496094 4.066407 4.039063 6.9375 4.046875 2.871094.003906 5.527344-1.527344 6.957032-4.015625 1.429687-2.492187 1.414062-5.554687-.035156-8.03125zm0 0"/><path d="m179.425781 129.070312-13.859375-8c-2.476562-1.449218-5.539062-1.464843-8.027344-.035156-2.492187 1.429688-4.023437 4.085938-4.015624 6.957032.003906 2.871093 1.550781 5.515624 4.042968 6.9375l13.859375 8c2.476563 1.449218 5.539063 1.464843 8.027344.035156 2.492187-1.429688 4.023437-4.085938 4.015625-6.957032-.003906-2.871093-1.550781-5.515624-4.042969-6.9375zm0 0"/><path d="m184 96h-16c-4.417969 0-8 3.582031-8 8s3.582031 8 8 8h16c4.417969 0 8-3.582031 8-8s-3.582031-8-8-8zm0 0"/><path d="m154.640625 84c2.207031 3.828125 7.101563 5.136719 10.925781 2.929688l13.859375-8c2.492188-1.421876 4.039063-4.066407 4.042969-6.9375.007812-2.871094-1.523438-5.527344-4.015625-6.957032-2.488281-1.429687-5.550781-1.414062-8.027344.035156l-13.859375 8c-3.824218 2.210938-5.136718 7.105469-2.925781 10.929688zm0 0"/><path d="m140 69.359375c3.828125 2.210937 8.71875.898437 10.929688-2.925781l8-13.859375c2.171874-3.820313.851562-8.679688-2.957032-10.878907-3.808594-2.199218-8.675781-.914062-10.902344 2.878907l-8 13.859375c-2.207031 3.824218-.894531 8.71875 2.929688 10.925781zm0 0"/><path d="m56 288h-16c-4.417969 0-8 3.582031-8 8s3.582031 8 8 8h16c4.417969 0 8-3.582031 8-8s-3.582031-8-8-8zm0 0"/></g></svg>