<svg height="480pt" viewBox="0 0 480 480" width="480pt" xmlns="http://www.w3.org/2000/svg"><path d="m88 233.65625-80-49.65625v264l162.878906-162.878906-162.878906 162.878906v8c.027344 8.824219 7.175781 15.972656 16 16h432c8.824219-.027344 15.972656-7.175781 16-16v-8l-162.878906-162.878906 162.878906 162.878906v-264l-232 144zm0 0" fill="#bddbff"/><path d="m440 144c17.671875 0 32-14.328125 32-32 0 17.671875-14.328125 32-32 32zm0 0" fill="#bddbff"/><path d="m408 112v-40c0-17.671875-14.328125-32-32-32s-32 14.328125-32 32v72h96c-17.671875 0-32-14.328125-32-32zm0 0" fill="#bddbff"/><g fill="#3d9ae2"><path d="m176 80h128v16h-128zm0 0"/><path d="m128 112h176v16h-176zm0 0"/><path d="m128 80h32v16h-32zm0 0"/><path d="m480 112v-96c0-8.835938-7.164062-16-16-16h-304c-8.835938 0-16 7.164062-16 16v16h-24c-22.082031.027344-39.972656 17.917969-40 40v28.6875l-77.648438 77.648438-.046874.054687c-.628907.660156-1.136719 1.421875-1.511719 2.25-.101563.246094-.191407.496094-.265625.75-.238282.683594-.382813 1.398437-.4296878 2.121094 0 .175781-.0976562.320312-.0976562.488281v272c0 13.253906 10.746094 24 24 24h432c13.253906 0 24-10.746094 24-24v-272c0-2.125-.847656-4.164062-2.351562-5.664062l-27.726563-27.726563c17.648437-4.519531 30.011719-20.390625 30.078125-38.609375zm-360-64h224.207031c-5.292969 6.882812-8.175781 15.316406-8.207031 24v187l-96 59.585938-144-89.378907v-157.207031c0-13.253906 10.746094-24 24-24zm288 88h-56v-64c0-13.253906 10.746094-24 24-24s24 10.746094 24 24v40c-.015625 8.65625 2.792969 17.082031 8 24zm20.671875 16 24 24h-100.671875v-24zm-76.671875 40h91.945312l-91.945312 57.070312zm112 6.398438v230.289062l-142.105469-142.101562zm-384 20.875-43.945312-27.273438h43.945312zm-64-20.875 142.105469 88.1875-142.105469 142.101562zm64-75.070313v52.671875h-52.6875zm376 340.671875h-432c-4.417969 0-8-3.582031-8-8v-4.6875l156.0625-156.066406 63.722656 39.554687c2.582032 1.601563 5.847656 1.601563 8.429688 0l63.722656-39.554687 156.0625 156.066406v4.6875c0 4.417969-3.582031 8-8 8zm8-352c0 13.253906-10.746094 24-24 24s-24-10.746094-24-24v-40c.011719-10.613281-4.199219-20.792969-11.703125-28.296875s-17.683594-11.714844-28.296875-11.703125h-216v-16h304zm0 0"/><path d="m128 144h80v16h-80zm0 0"/><path d="m224 144h32v16h-32zm0 0"/><path d="m272 144h32v16h-32zm0 0"/><path d="m128 176h48v16h-48zm0 0"/><path d="m192 176h112v16h-112zm0 0"/><path d="m128 208h16v16h-16zm0 0"/><path d="m160 208h96v16h-96zm0 0"/><path d="m272 208h32v16h-32zm0 0"/><path d="m160 240h144v16h-144zm0 0"/></g></svg>